<mxfile host="app.diagrams.net" agent="Mozilla/5.0 (Macintosh; Intel Mac OS X 10_15_7) AppleWebKit/605.1.15 (KHTML, like Gecko) Version/18.3 Safari/605.1.15" version="26.0.16">
  <diagram name="Page-1" id="ad52d381-51e7-2e0d-a935-2d0ddd2fd229">
    <mxGraphModel dx="844" dy="1413" grid="1" gridSize="10" guides="1" tooltips="1" connect="1" arrows="1" fold="1" page="1" pageScale="1" pageWidth="1100" pageHeight="850" background="none" math="0" shadow="0">
      <root>
        <mxCell id="0" />
        <mxCell id="1" parent="0" />
        <mxCell id="rCfvvwF2RA5xIQDXdpEa-3" value="Director" style="whiteSpace=wrap;html=1;align=center;" vertex="1" parent="1">
          <mxGeometry x="410" y="330" width="100" height="40" as="geometry" />
        </mxCell>
        <mxCell id="rCfvvwF2RA5xIQDXdpEa-4" value="Project" style="whiteSpace=wrap;html=1;align=center;" vertex="1" parent="1">
          <mxGeometry x="410" y="550" width="100" height="40" as="geometry" />
        </mxCell>
        <mxCell id="rCfvvwF2RA5xIQDXdpEa-8" style="edgeStyle=orthogonalEdgeStyle;rounded=0;orthogonalLoop=1;jettySize=auto;html=1;entryX=0.5;entryY=1;entryDx=0;entryDy=0;endArrow=ERone;endFill=0;" edge="1" parent="1" source="rCfvvwF2RA5xIQDXdpEa-5" target="rCfvvwF2RA5xIQDXdpEa-3">
          <mxGeometry relative="1" as="geometry" />
        </mxCell>
        <mxCell id="rCfvvwF2RA5xIQDXdpEa-9" style="edgeStyle=orthogonalEdgeStyle;rounded=0;orthogonalLoop=1;jettySize=auto;html=1;entryX=0.5;entryY=0;entryDx=0;entryDy=0;endArrow=ERzeroToMany;endFill=0;" edge="1" parent="1" source="rCfvvwF2RA5xIQDXdpEa-5" target="rCfvvwF2RA5xIQDXdpEa-4">
          <mxGeometry relative="1" as="geometry" />
        </mxCell>
        <mxCell id="rCfvvwF2RA5xIQDXdpEa-5" value="creates" style="shape=rhombus;perimeter=rhombusPerimeter;whiteSpace=wrap;html=1;align=center;" vertex="1" parent="1">
          <mxGeometry x="415" y="440" width="90" height="50" as="geometry" />
        </mxCell>
        <mxCell id="rCfvvwF2RA5xIQDXdpEa-16" value="User" style="whiteSpace=wrap;html=1;align=center;" vertex="1" parent="1">
          <mxGeometry x="410" y="10" width="100" height="40" as="geometry" />
        </mxCell>
        <mxCell id="rCfvvwF2RA5xIQDXdpEa-30" style="edgeStyle=orthogonalEdgeStyle;rounded=0;orthogonalLoop=1;jettySize=auto;html=1;entryX=0;entryY=0.5;entryDx=0;entryDy=0;endArrow=none;startFill=0;" edge="1" parent="1" source="rCfvvwF2RA5xIQDXdpEa-17" target="rCfvvwF2RA5xIQDXdpEa-24">
          <mxGeometry relative="1" as="geometry" />
        </mxCell>
        <mxCell id="rCfvvwF2RA5xIQDXdpEa-17" value="Aspirant" style="whiteSpace=wrap;html=1;align=center;" vertex="1" parent="1">
          <mxGeometry x="190" y="92.5" width="100" height="40" as="geometry" />
        </mxCell>
        <mxCell id="rCfvvwF2RA5xIQDXdpEa-32" style="edgeStyle=orthogonalEdgeStyle;rounded=0;orthogonalLoop=1;jettySize=auto;html=1;endArrow=none;startFill=0;" edge="1" parent="1" source="rCfvvwF2RA5xIQDXdpEa-19" target="rCfvvwF2RA5xIQDXdpEa-24">
          <mxGeometry relative="1" as="geometry" />
        </mxCell>
        <mxCell id="rCfvvwF2RA5xIQDXdpEa-19" value="Director" style="whiteSpace=wrap;html=1;align=center;" vertex="1" parent="1">
          <mxGeometry x="410" y="200" width="100" height="40" as="geometry" />
        </mxCell>
        <mxCell id="rCfvvwF2RA5xIQDXdpEa-34" style="edgeStyle=orthogonalEdgeStyle;rounded=0;orthogonalLoop=1;jettySize=auto;html=1;entryX=1;entryY=0.5;entryDx=0;entryDy=0;endArrow=none;startFill=0;" edge="1" parent="1" source="rCfvvwF2RA5xIQDXdpEa-20" target="rCfvvwF2RA5xIQDXdpEa-24">
          <mxGeometry relative="1" as="geometry" />
        </mxCell>
        <mxCell id="rCfvvwF2RA5xIQDXdpEa-37" style="edgeStyle=orthogonalEdgeStyle;rounded=0;orthogonalLoop=1;jettySize=auto;html=1;entryX=0;entryY=0.5;entryDx=0;entryDy=0;shape=link;" edge="1" parent="1" source="rCfvvwF2RA5xIQDXdpEa-20" target="rCfvvwF2RA5xIQDXdpEa-36">
          <mxGeometry relative="1" as="geometry" />
        </mxCell>
        <mxCell id="rCfvvwF2RA5xIQDXdpEa-20" value="Human_resource staff" style="whiteSpace=wrap;html=1;align=center;" vertex="1" parent="1">
          <mxGeometry x="710" y="92.5" width="100" height="40" as="geometry" />
        </mxCell>
        <mxCell id="rCfvvwF2RA5xIQDXdpEa-355" style="edgeStyle=orthogonalEdgeStyle;shape=connector;rounded=0;orthogonalLoop=1;jettySize=auto;html=1;entryX=0;entryY=0.5;entryDx=0;entryDy=0;strokeColor=default;align=center;verticalAlign=middle;fontFamily=Helvetica;fontSize=11;fontColor=default;labelBackgroundColor=default;endArrow=none;endFill=0;startFill=0;startArrow=ERone;" edge="1" parent="1" source="rCfvvwF2RA5xIQDXdpEa-21" target="rCfvvwF2RA5xIQDXdpEa-354">
          <mxGeometry relative="1" as="geometry">
            <Array as="points">
              <mxPoint x="630" y="855" />
            </Array>
          </mxGeometry>
        </mxCell>
        <mxCell id="rCfvvwF2RA5xIQDXdpEa-21" value="Manager" style="whiteSpace=wrap;html=1;align=center;" vertex="1" parent="1">
          <mxGeometry x="580" y="190" width="100" height="40" as="geometry" />
        </mxCell>
        <mxCell id="rCfvvwF2RA5xIQDXdpEa-38" style="edgeStyle=orthogonalEdgeStyle;rounded=0;orthogonalLoop=1;jettySize=auto;html=1;entryX=0.5;entryY=0;entryDx=0;entryDy=0;endArrow=none;startFill=0;" edge="1" parent="1" source="rCfvvwF2RA5xIQDXdpEa-22" target="rCfvvwF2RA5xIQDXdpEa-36">
          <mxGeometry relative="1" as="geometry" />
        </mxCell>
        <mxCell id="rCfvvwF2RA5xIQDXdpEa-22" value="Assistant" style="whiteSpace=wrap;html=1;align=center;" vertex="1" parent="1">
          <mxGeometry x="940" y="30" width="100" height="40" as="geometry" />
        </mxCell>
        <mxCell id="rCfvvwF2RA5xIQDXdpEa-39" style="edgeStyle=orthogonalEdgeStyle;rounded=0;orthogonalLoop=1;jettySize=auto;html=1;entryX=0.5;entryY=1;entryDx=0;entryDy=0;endArrow=none;startFill=0;" edge="1" parent="1" source="rCfvvwF2RA5xIQDXdpEa-23" target="rCfvvwF2RA5xIQDXdpEa-36">
          <mxGeometry relative="1" as="geometry" />
        </mxCell>
        <mxCell id="rCfvvwF2RA5xIQDXdpEa-23" value="Boss" style="whiteSpace=wrap;html=1;align=center;" vertex="1" parent="1">
          <mxGeometry x="940" y="170" width="100" height="40" as="geometry" />
        </mxCell>
        <mxCell id="rCfvvwF2RA5xIQDXdpEa-27" style="edgeStyle=orthogonalEdgeStyle;rounded=0;orthogonalLoop=1;jettySize=auto;html=1;entryX=0.5;entryY=1;entryDx=0;entryDy=0;endArrow=none;startFill=0;shape=link;" edge="1" parent="1" source="rCfvvwF2RA5xIQDXdpEa-24" target="rCfvvwF2RA5xIQDXdpEa-16">
          <mxGeometry relative="1" as="geometry">
            <Array as="points">
              <mxPoint x="460" y="80" />
              <mxPoint x="460" y="80" />
            </Array>
          </mxGeometry>
        </mxCell>
        <mxCell id="rCfvvwF2RA5xIQDXdpEa-24" value="d" style="ellipse;whiteSpace=wrap;html=1;aspect=fixed;" vertex="1" parent="1">
          <mxGeometry x="437.5" y="90" width="45" height="45" as="geometry" />
        </mxCell>
        <mxCell id="rCfvvwF2RA5xIQDXdpEa-35" style="rounded=0;orthogonalLoop=1;jettySize=auto;html=1;endArrow=none;startFill=0;" edge="1" parent="1" source="rCfvvwF2RA5xIQDXdpEa-21" target="rCfvvwF2RA5xIQDXdpEa-24">
          <mxGeometry relative="1" as="geometry" />
        </mxCell>
        <mxCell id="rCfvvwF2RA5xIQDXdpEa-36" value="d" style="ellipse;whiteSpace=wrap;html=1;aspect=fixed;" vertex="1" parent="1">
          <mxGeometry x="860" y="90" width="45" height="45" as="geometry" />
        </mxCell>
        <mxCell id="rCfvvwF2RA5xIQDXdpEa-57" style="rounded=0;orthogonalLoop=1;jettySize=auto;html=1;entryX=0;entryY=0.5;entryDx=0;entryDy=0;endArrow=none;startFill=0;" edge="1" parent="1" source="rCfvvwF2RA5xIQDXdpEa-40" target="rCfvvwF2RA5xIQDXdpEa-16">
          <mxGeometry relative="1" as="geometry" />
        </mxCell>
        <mxCell id="rCfvvwF2RA5xIQDXdpEa-40" value="&lt;u&gt;ID&lt;/u&gt;" style="ellipse;whiteSpace=wrap;html=1;align=center;" vertex="1" parent="1">
          <mxGeometry x="215" y="-60" width="100" height="40" as="geometry" />
        </mxCell>
        <mxCell id="rCfvvwF2RA5xIQDXdpEa-52" style="rounded=0;orthogonalLoop=1;jettySize=auto;html=1;endArrow=none;startFill=0;" edge="1" parent="1" source="rCfvvwF2RA5xIQDXdpEa-42" target="rCfvvwF2RA5xIQDXdpEa-16">
          <mxGeometry relative="1" as="geometry" />
        </mxCell>
        <mxCell id="rCfvvwF2RA5xIQDXdpEa-42" value="first_name" style="ellipse;whiteSpace=wrap;html=1;align=center;" vertex="1" parent="1">
          <mxGeometry x="325" y="-160" width="100" height="40" as="geometry" />
        </mxCell>
        <mxCell id="rCfvvwF2RA5xIQDXdpEa-49" style="rounded=0;orthogonalLoop=1;jettySize=auto;html=1;endArrow=none;startFill=0;" edge="1" parent="1" source="rCfvvwF2RA5xIQDXdpEa-43" target="rCfvvwF2RA5xIQDXdpEa-16">
          <mxGeometry relative="1" as="geometry" />
        </mxCell>
        <mxCell id="rCfvvwF2RA5xIQDXdpEa-43" value="Phone_number" style="ellipse;shape=doubleEllipse;margin=3;whiteSpace=wrap;html=1;align=center;" vertex="1" parent="1">
          <mxGeometry x="250" y="-110" width="100" height="40" as="geometry" />
        </mxCell>
        <mxCell id="rCfvvwF2RA5xIQDXdpEa-54" style="rounded=0;orthogonalLoop=1;jettySize=auto;html=1;edgeStyle=elbowEdgeStyle;endArrow=none;startFill=0;" edge="1" parent="1" source="rCfvvwF2RA5xIQDXdpEa-44" target="rCfvvwF2RA5xIQDXdpEa-16">
          <mxGeometry relative="1" as="geometry" />
        </mxCell>
        <mxCell id="rCfvvwF2RA5xIQDXdpEa-44" value="middle_name" style="ellipse;whiteSpace=wrap;html=1;align=center;" vertex="1" parent="1">
          <mxGeometry x="430" y="-160" width="100" height="40" as="geometry" />
        </mxCell>
        <mxCell id="rCfvvwF2RA5xIQDXdpEa-45" value="first_last_name" style="ellipse;whiteSpace=wrap;html=1;align=center;" vertex="1" parent="1">
          <mxGeometry x="530" y="-120" width="100" height="40" as="geometry" />
        </mxCell>
        <mxCell id="rCfvvwF2RA5xIQDXdpEa-56" style="rounded=0;orthogonalLoop=1;jettySize=auto;html=1;entryX=1;entryY=0.5;entryDx=0;entryDy=0;endArrow=none;startFill=0;" edge="1" parent="1" source="rCfvvwF2RA5xIQDXdpEa-46" target="rCfvvwF2RA5xIQDXdpEa-16">
          <mxGeometry relative="1" as="geometry" />
        </mxCell>
        <mxCell id="rCfvvwF2RA5xIQDXdpEa-46" value="second_last_name" style="ellipse;whiteSpace=wrap;html=1;align=center;" vertex="1" parent="1">
          <mxGeometry x="570" y="-70" width="110" height="40" as="geometry" />
        </mxCell>
        <mxCell id="rCfvvwF2RA5xIQDXdpEa-58" style="edgeStyle=orthogonalEdgeStyle;rounded=0;orthogonalLoop=1;jettySize=auto;html=1;endArrow=none;startFill=0;" edge="1" parent="1" source="rCfvvwF2RA5xIQDXdpEa-47" target="rCfvvwF2RA5xIQDXdpEa-16">
          <mxGeometry relative="1" as="geometry" />
        </mxCell>
        <mxCell id="rCfvvwF2RA5xIQDXdpEa-47" value="password" style="ellipse;whiteSpace=wrap;html=1;align=center;" vertex="1" parent="1">
          <mxGeometry x="170" y="10" width="100" height="40" as="geometry" />
        </mxCell>
        <mxCell id="rCfvvwF2RA5xIQDXdpEa-59" style="edgeStyle=orthogonalEdgeStyle;rounded=0;orthogonalLoop=1;jettySize=auto;html=1;entryX=1;entryY=0.5;entryDx=0;entryDy=0;endArrow=none;startFill=0;" edge="1" parent="1" source="rCfvvwF2RA5xIQDXdpEa-48" target="rCfvvwF2RA5xIQDXdpEa-16">
          <mxGeometry relative="1" as="geometry" />
        </mxCell>
        <mxCell id="rCfvvwF2RA5xIQDXdpEa-48" value="mail" style="ellipse;whiteSpace=wrap;html=1;align=center;" vertex="1" parent="1">
          <mxGeometry x="610" y="10" width="110" height="40" as="geometry" />
        </mxCell>
        <mxCell id="rCfvvwF2RA5xIQDXdpEa-55" style="rounded=0;orthogonalLoop=1;jettySize=auto;html=1;entryX=0.853;entryY=0.007;entryDx=0;entryDy=0;entryPerimeter=0;endArrow=none;startFill=0;" edge="1" parent="1" source="rCfvvwF2RA5xIQDXdpEa-45" target="rCfvvwF2RA5xIQDXdpEa-16">
          <mxGeometry relative="1" as="geometry" />
        </mxCell>
        <mxCell id="rCfvvwF2RA5xIQDXdpEa-340" style="edgeStyle=orthogonalEdgeStyle;shape=connector;rounded=0;orthogonalLoop=1;jettySize=auto;html=1;entryX=0;entryY=0.5;entryDx=0;entryDy=0;strokeColor=default;align=center;verticalAlign=middle;fontFamily=Helvetica;fontSize=11;fontColor=default;labelBackgroundColor=default;endArrow=none;endFill=0;startFill=0;" edge="1" parent="1" source="rCfvvwF2RA5xIQDXdpEa-60" target="rCfvvwF2RA5xIQDXdpEa-4">
          <mxGeometry relative="1" as="geometry" />
        </mxCell>
        <mxCell id="rCfvvwF2RA5xIQDXdpEa-60" value="&lt;u&gt;ID&lt;/u&gt;" style="ellipse;whiteSpace=wrap;html=1;align=center;" vertex="1" parent="1">
          <mxGeometry x="160" y="405.5" width="100" height="40" as="geometry" />
        </mxCell>
        <mxCell id="rCfvvwF2RA5xIQDXdpEa-341" style="edgeStyle=orthogonalEdgeStyle;shape=connector;rounded=0;orthogonalLoop=1;jettySize=auto;html=1;entryX=0;entryY=0.5;entryDx=0;entryDy=0;strokeColor=default;align=center;verticalAlign=middle;fontFamily=Helvetica;fontSize=11;fontColor=default;labelBackgroundColor=default;endArrow=none;endFill=0;startFill=0;" edge="1" parent="1" source="rCfvvwF2RA5xIQDXdpEa-61" target="rCfvvwF2RA5xIQDXdpEa-4">
          <mxGeometry relative="1" as="geometry" />
        </mxCell>
        <mxCell id="rCfvvwF2RA5xIQDXdpEa-61" value="name" style="ellipse;whiteSpace=wrap;html=1;align=center;" vertex="1" parent="1">
          <mxGeometry x="160" y="460" width="100" height="40" as="geometry" />
        </mxCell>
        <mxCell id="rCfvvwF2RA5xIQDXdpEa-343" style="edgeStyle=orthogonalEdgeStyle;shape=connector;rounded=0;orthogonalLoop=1;jettySize=auto;html=1;entryX=0;entryY=0.5;entryDx=0;entryDy=0;strokeColor=default;align=center;verticalAlign=middle;fontFamily=Helvetica;fontSize=11;fontColor=default;labelBackgroundColor=default;endArrow=none;endFill=0;startFill=0;" edge="1" parent="1" source="rCfvvwF2RA5xIQDXdpEa-62" target="rCfvvwF2RA5xIQDXdpEa-4">
          <mxGeometry relative="1" as="geometry" />
        </mxCell>
        <mxCell id="rCfvvwF2RA5xIQDXdpEa-62" value="description" style="ellipse;whiteSpace=wrap;html=1;align=center;" vertex="1" parent="1">
          <mxGeometry x="160" y="620" width="100" height="40" as="geometry" />
        </mxCell>
        <mxCell id="rCfvvwF2RA5xIQDXdpEa-344" style="edgeStyle=orthogonalEdgeStyle;shape=connector;rounded=0;orthogonalLoop=1;jettySize=auto;html=1;entryX=0;entryY=0.5;entryDx=0;entryDy=0;strokeColor=default;align=center;verticalAlign=middle;fontFamily=Helvetica;fontSize=11;fontColor=default;labelBackgroundColor=default;endArrow=none;endFill=0;startFill=0;" edge="1" parent="1" source="rCfvvwF2RA5xIQDXdpEa-63" target="rCfvvwF2RA5xIQDXdpEa-4">
          <mxGeometry relative="1" as="geometry" />
        </mxCell>
        <mxCell id="rCfvvwF2RA5xIQDXdpEa-63" value="start_date" style="ellipse;whiteSpace=wrap;html=1;align=center;" vertex="1" parent="1">
          <mxGeometry x="160" y="690" width="100" height="40" as="geometry" />
        </mxCell>
        <mxCell id="rCfvvwF2RA5xIQDXdpEa-342" style="edgeStyle=orthogonalEdgeStyle;shape=connector;rounded=0;orthogonalLoop=1;jettySize=auto;html=1;strokeColor=default;align=center;verticalAlign=middle;fontFamily=Helvetica;fontSize=11;fontColor=default;labelBackgroundColor=default;endArrow=none;endFill=0;startFill=0;" edge="1" parent="1" source="rCfvvwF2RA5xIQDXdpEa-64">
          <mxGeometry relative="1" as="geometry">
            <mxPoint x="410" y="570" as="targetPoint" />
          </mxGeometry>
        </mxCell>
        <mxCell id="rCfvvwF2RA5xIQDXdpEa-64" value="end_date" style="ellipse;whiteSpace=wrap;html=1;align=center;" vertex="1" parent="1">
          <mxGeometry x="160" y="550" width="100" height="40" as="geometry" />
        </mxCell>
        <mxCell id="rCfvvwF2RA5xIQDXdpEa-72" value="Profile" style="whiteSpace=wrap;html=1;align=center;" vertex="1" parent="1">
          <mxGeometry x="710" y="550" width="100" height="40" as="geometry" />
        </mxCell>
        <mxCell id="rCfvvwF2RA5xIQDXdpEa-75" style="edgeStyle=orthogonalEdgeStyle;rounded=0;orthogonalLoop=1;jettySize=auto;html=1;entryX=1;entryY=0.5;entryDx=0;entryDy=0;endArrow=ERone;endFill=0;" edge="1" parent="1" source="rCfvvwF2RA5xIQDXdpEa-73" target="rCfvvwF2RA5xIQDXdpEa-4">
          <mxGeometry relative="1" as="geometry" />
        </mxCell>
        <mxCell id="rCfvvwF2RA5xIQDXdpEa-76" style="edgeStyle=orthogonalEdgeStyle;rounded=0;orthogonalLoop=1;jettySize=auto;html=1;entryX=0;entryY=0.5;entryDx=0;entryDy=0;endArrow=ERoneToMany;endFill=0;" edge="1" parent="1" source="rCfvvwF2RA5xIQDXdpEa-73" target="rCfvvwF2RA5xIQDXdpEa-72">
          <mxGeometry relative="1" as="geometry" />
        </mxCell>
        <mxCell id="rCfvvwF2RA5xIQDXdpEa-73" value="has" style="shape=rhombus;perimeter=rhombusPerimeter;whiteSpace=wrap;html=1;align=center;" vertex="1" parent="1">
          <mxGeometry x="540" y="540" width="120" height="60" as="geometry" />
        </mxCell>
        <mxCell id="rCfvvwF2RA5xIQDXdpEa-94" style="rounded=0;orthogonalLoop=1;jettySize=auto;html=1;endArrow=none;startFill=0;" edge="1" parent="1" source="rCfvvwF2RA5xIQDXdpEa-79" target="rCfvvwF2RA5xIQDXdpEa-72">
          <mxGeometry relative="1" as="geometry" />
        </mxCell>
        <mxCell id="rCfvvwF2RA5xIQDXdpEa-79" value="salary" style="ellipse;whiteSpace=wrap;html=1;align=center;" vertex="1" parent="1">
          <mxGeometry x="590" y="405" width="100" height="40" as="geometry" />
        </mxCell>
        <mxCell id="rCfvvwF2RA5xIQDXdpEa-97" style="rounded=0;orthogonalLoop=1;jettySize=auto;html=1;endArrow=none;startFill=0;" edge="1" parent="1" source="rCfvvwF2RA5xIQDXdpEa-80" target="rCfvvwF2RA5xIQDXdpEa-72">
          <mxGeometry relative="1" as="geometry" />
        </mxCell>
        <mxCell id="rCfvvwF2RA5xIQDXdpEa-80" value="&lt;u&gt;ID&lt;/u&gt;" style="ellipse;whiteSpace=wrap;html=1;align=center;" vertex="1" parent="1">
          <mxGeometry x="832.5" y="405" width="100" height="40" as="geometry" />
        </mxCell>
        <mxCell id="rCfvvwF2RA5xIQDXdpEa-96" style="rounded=0;orthogonalLoop=1;jettySize=auto;html=1;endArrow=none;startFill=0;" edge="1" parent="1" source="rCfvvwF2RA5xIQDXdpEa-82" target="rCfvvwF2RA5xIQDXdpEa-72">
          <mxGeometry relative="1" as="geometry" />
        </mxCell>
        <mxCell id="rCfvvwF2RA5xIQDXdpEa-82" value="name" style="ellipse;whiteSpace=wrap;html=1;align=center;" vertex="1" parent="1">
          <mxGeometry x="770" y="345" width="100" height="40" as="geometry" />
        </mxCell>
        <mxCell id="rCfvvwF2RA5xIQDXdpEa-95" style="rounded=0;orthogonalLoop=1;jettySize=auto;html=1;endArrow=none;startFill=0;" edge="1" parent="1" source="rCfvvwF2RA5xIQDXdpEa-86" target="rCfvvwF2RA5xIQDXdpEa-72">
          <mxGeometry relative="1" as="geometry" />
        </mxCell>
        <mxCell id="rCfvvwF2RA5xIQDXdpEa-86" value="activities&amp;nbsp;" style="ellipse;whiteSpace=wrap;html=1;align=center;" vertex="1" parent="1">
          <mxGeometry x="650" y="345" width="100" height="40" as="geometry" />
        </mxCell>
        <mxCell id="rCfvvwF2RA5xIQDXdpEa-91" value="Status" style="whiteSpace=wrap;html=1;align=center;" vertex="1" parent="1">
          <mxGeometry x="1258.96" y="1070" width="100" height="40" as="geometry" />
        </mxCell>
        <mxCell id="rCfvvwF2RA5xIQDXdpEa-92" value="personal" style="whiteSpace=wrap;html=1;align=center;" vertex="1" parent="1">
          <mxGeometry x="1050" y="550" width="100" height="40" as="geometry" />
        </mxCell>
        <mxCell id="rCfvvwF2RA5xIQDXdpEa-100" style="edgeStyle=orthogonalEdgeStyle;rounded=0;orthogonalLoop=1;jettySize=auto;html=1;entryX=0.5;entryY=1;entryDx=0;entryDy=0;endArrow=ERone;endFill=0;" edge="1" parent="1" source="rCfvvwF2RA5xIQDXdpEa-98" target="rCfvvwF2RA5xIQDXdpEa-20">
          <mxGeometry relative="1" as="geometry" />
        </mxCell>
        <mxCell id="rCfvvwF2RA5xIQDXdpEa-101" style="edgeStyle=orthogonalEdgeStyle;rounded=0;orthogonalLoop=1;jettySize=auto;html=1;endArrow=ERoneToMany;endFill=0;" edge="1" parent="1" source="rCfvvwF2RA5xIQDXdpEa-98" target="rCfvvwF2RA5xIQDXdpEa-72">
          <mxGeometry relative="1" as="geometry" />
        </mxCell>
        <mxCell id="rCfvvwF2RA5xIQDXdpEa-98" value="manages" style="shape=rhombus;perimeter=rhombusPerimeter;whiteSpace=wrap;html=1;align=center;" vertex="1" parent="1">
          <mxGeometry x="700" y="260" width="120" height="60" as="geometry" />
        </mxCell>
        <mxCell id="rCfvvwF2RA5xIQDXdpEa-103" style="rounded=0;orthogonalLoop=1;jettySize=auto;html=1;endArrow=none;startFill=0;" edge="1" parent="1" source="rCfvvwF2RA5xIQDXdpEa-102" target="rCfvvwF2RA5xIQDXdpEa-24">
          <mxGeometry relative="1" as="geometry" />
        </mxCell>
        <mxCell id="rCfvvwF2RA5xIQDXdpEa-102" value="Personal" style="whiteSpace=wrap;html=1;align=center;" vertex="1" parent="1">
          <mxGeometry x="200" y="200" width="100" height="40" as="geometry" />
        </mxCell>
        <mxCell id="rCfvvwF2RA5xIQDXdpEa-106" style="edgeStyle=orthogonalEdgeStyle;rounded=0;orthogonalLoop=1;jettySize=auto;html=1;endArrow=ERone;endFill=0;" edge="1" parent="1" source="rCfvvwF2RA5xIQDXdpEa-105" target="rCfvvwF2RA5xIQDXdpEa-72">
          <mxGeometry relative="1" as="geometry" />
        </mxCell>
        <mxCell id="rCfvvwF2RA5xIQDXdpEa-108" style="edgeStyle=orthogonalEdgeStyle;rounded=0;orthogonalLoop=1;jettySize=auto;html=1;entryX=0;entryY=0.5;entryDx=0;entryDy=0;endArrow=ERoneToMany;endFill=0;" edge="1" parent="1" source="rCfvvwF2RA5xIQDXdpEa-105" target="rCfvvwF2RA5xIQDXdpEa-92">
          <mxGeometry relative="1" as="geometry" />
        </mxCell>
        <mxCell id="rCfvvwF2RA5xIQDXdpEa-105" value="prioritize" style="shape=rhombus;perimeter=rhombusPerimeter;whiteSpace=wrap;html=1;align=center;" vertex="1" parent="1">
          <mxGeometry x="870" y="540" width="120" height="60" as="geometry" />
        </mxCell>
        <mxCell id="rCfvvwF2RA5xIQDXdpEa-112" style="edgeStyle=orthogonalEdgeStyle;rounded=0;orthogonalLoop=1;jettySize=auto;html=1;entryX=0.5;entryY=1;entryDx=0;entryDy=0;endArrow=ERoneToMany;endFill=0;jumpStyle=sharp;" edge="1" parent="1" source="rCfvvwF2RA5xIQDXdpEa-110" target="rCfvvwF2RA5xIQDXdpEa-72">
          <mxGeometry relative="1" as="geometry" />
        </mxCell>
        <mxCell id="rCfvvwF2RA5xIQDXdpEa-110" value="has" style="shape=rhombus;perimeter=rhombusPerimeter;whiteSpace=wrap;html=1;align=center;" vertex="1" parent="1">
          <mxGeometry x="1051.46" y="1060" width="110" height="50" as="geometry" />
        </mxCell>
        <mxCell id="rCfvvwF2RA5xIQDXdpEa-113" style="edgeStyle=orthogonalEdgeStyle;rounded=0;orthogonalLoop=1;jettySize=auto;html=1;entryX=0.008;entryY=0.382;entryDx=0;entryDy=0;entryPerimeter=0;endArrow=ERone;endFill=0;" edge="1" parent="1" source="rCfvvwF2RA5xIQDXdpEa-110" target="rCfvvwF2RA5xIQDXdpEa-91">
          <mxGeometry relative="1" as="geometry" />
        </mxCell>
        <mxCell id="rCfvvwF2RA5xIQDXdpEa-117" style="edgeStyle=orthogonalEdgeStyle;rounded=0;orthogonalLoop=1;jettySize=auto;html=1;entryX=0.5;entryY=1;entryDx=0;entryDy=0;shape=link;" edge="1" parent="1" source="rCfvvwF2RA5xIQDXdpEa-114" target="rCfvvwF2RA5xIQDXdpEa-91">
          <mxGeometry relative="1" as="geometry" />
        </mxCell>
        <mxCell id="rCfvvwF2RA5xIQDXdpEa-114" value="d" style="ellipse;whiteSpace=wrap;html=1;aspect=fixed;" vertex="1" parent="1">
          <mxGeometry x="1286.46" y="1180" width="45" height="45" as="geometry" />
        </mxCell>
        <mxCell id="rCfvvwF2RA5xIQDXdpEa-121" style="rounded=0;orthogonalLoop=1;jettySize=auto;html=1;entryX=0;entryY=0.5;entryDx=0;entryDy=0;endArrow=none;startFill=0;" edge="1" parent="1" source="rCfvvwF2RA5xIQDXdpEa-118" target="rCfvvwF2RA5xIQDXdpEa-114">
          <mxGeometry relative="1" as="geometry" />
        </mxCell>
        <mxCell id="rCfvvwF2RA5xIQDXdpEa-118" value="In_review" style="whiteSpace=wrap;html=1;align=center;" vertex="1" parent="1">
          <mxGeometry x="1116.46" y="1260" width="100" height="40" as="geometry" />
        </mxCell>
        <mxCell id="rCfvvwF2RA5xIQDXdpEa-122" style="rounded=0;orthogonalLoop=1;jettySize=auto;html=1;entryX=0.5;entryY=1;entryDx=0;entryDy=0;endArrow=none;startFill=0;exitX=0.5;exitY=0;exitDx=0;exitDy=0;" edge="1" parent="1" source="rCfvvwF2RA5xIQDXdpEa-119" target="rCfvvwF2RA5xIQDXdpEa-114">
          <mxGeometry relative="1" as="geometry" />
        </mxCell>
        <mxCell id="rCfvvwF2RA5xIQDXdpEa-119" value="&lt;span style=&quot;color: rgb(255, 51, 153);&quot;&gt;In_hiring&lt;/span&gt;" style="whiteSpace=wrap;html=1;align=center;" vertex="1" parent="1">
          <mxGeometry x="1258.96" y="1280" width="100" height="40" as="geometry" />
        </mxCell>
        <mxCell id="rCfvvwF2RA5xIQDXdpEa-123" style="rounded=0;orthogonalLoop=1;jettySize=auto;html=1;entryX=1;entryY=0.5;entryDx=0;entryDy=0;endArrow=none;startFill=0;" edge="1" parent="1" source="rCfvvwF2RA5xIQDXdpEa-120" target="rCfvvwF2RA5xIQDXdpEa-114">
          <mxGeometry relative="1" as="geometry" />
        </mxCell>
        <mxCell id="rCfvvwF2RA5xIQDXdpEa-120" value="Completed" style="whiteSpace=wrap;html=1;align=center;" vertex="1" parent="1">
          <mxGeometry x="1446.46" y="1260" width="100" height="40" as="geometry" />
        </mxCell>
        <mxCell id="rCfvvwF2RA5xIQDXdpEa-124" value="Employment_type" style="whiteSpace=wrap;html=1;align=center;" vertex="1" parent="1">
          <mxGeometry x="617.9100000000001" y="1205" width="100" height="40" as="geometry" />
        </mxCell>
        <mxCell id="rCfvvwF2RA5xIQDXdpEa-131" style="rounded=0;orthogonalLoop=1;jettySize=auto;html=1;endArrow=ERmandOne;endFill=0;entryX=0;entryY=1;entryDx=0;entryDy=0;edgeStyle=elbowEdgeStyle;elbow=vertical;jumpStyle=sharp;" edge="1" parent="1" source="rCfvvwF2RA5xIQDXdpEa-129" target="rCfvvwF2RA5xIQDXdpEa-72">
          <mxGeometry relative="1" as="geometry" />
        </mxCell>
        <mxCell id="rCfvvwF2RA5xIQDXdpEa-133" style="edgeStyle=orthogonalEdgeStyle;rounded=0;orthogonalLoop=1;jettySize=auto;html=1;entryX=0.5;entryY=0;entryDx=0;entryDy=0;endArrow=ERmandOne;endFill=0;" edge="1" parent="1" source="rCfvvwF2RA5xIQDXdpEa-129" target="rCfvvwF2RA5xIQDXdpEa-124">
          <mxGeometry relative="1" as="geometry" />
        </mxCell>
        <mxCell id="rCfvvwF2RA5xIQDXdpEa-129" value="has" style="shape=rhombus;perimeter=rhombusPerimeter;whiteSpace=wrap;html=1;align=center;" vertex="1" parent="1">
          <mxGeometry x="607.9100000000001" y="1075" width="120" height="60" as="geometry" />
        </mxCell>
        <mxCell id="rCfvvwF2RA5xIQDXdpEa-134" value="d" style="ellipse;whiteSpace=wrap;html=1;aspect=fixed;" vertex="1" parent="1">
          <mxGeometry x="642.9100000000001" y="1295" width="45" height="45" as="geometry" />
        </mxCell>
        <mxCell id="rCfvvwF2RA5xIQDXdpEa-135" style="edgeStyle=orthogonalEdgeStyle;rounded=0;orthogonalLoop=1;jettySize=auto;html=1;entryX=0.475;entryY=1;entryDx=0;entryDy=0;entryPerimeter=0;shape=link;" edge="1" parent="1" source="rCfvvwF2RA5xIQDXdpEa-134" target="rCfvvwF2RA5xIQDXdpEa-124">
          <mxGeometry relative="1" as="geometry" />
        </mxCell>
        <mxCell id="rCfvvwF2RA5xIQDXdpEa-136" value="Administrative" style="whiteSpace=wrap;html=1;align=center;" vertex="1" parent="1">
          <mxGeometry x="530" y="1405" width="100" height="40" as="geometry" />
        </mxCell>
        <mxCell id="rCfvvwF2RA5xIQDXdpEa-139" style="rounded=0;orthogonalLoop=1;jettySize=auto;html=1;entryX=1;entryY=0.5;entryDx=0;entryDy=0;endArrow=none;startFill=0;" edge="1" parent="1" source="rCfvvwF2RA5xIQDXdpEa-137" target="rCfvvwF2RA5xIQDXdpEa-134">
          <mxGeometry relative="1" as="geometry" />
        </mxCell>
        <mxCell id="rCfvvwF2RA5xIQDXdpEa-137" value="Operative" style="whiteSpace=wrap;html=1;align=center;" vertex="1" parent="1">
          <mxGeometry x="707.9100000000001" y="1405" width="100" height="40" as="geometry" />
        </mxCell>
        <mxCell id="rCfvvwF2RA5xIQDXdpEa-138" style="rounded=0;orthogonalLoop=1;jettySize=auto;html=1;entryX=0;entryY=0.5;entryDx=0;entryDy=0;endArrow=none;startFill=0;exitX=0.5;exitY=0;exitDx=0;exitDy=0;" edge="1" parent="1" source="rCfvvwF2RA5xIQDXdpEa-136" target="rCfvvwF2RA5xIQDXdpEa-134">
          <mxGeometry relative="1" as="geometry">
            <mxPoint x="590.003023255814" y="1405" as="sourcePoint" />
          </mxGeometry>
        </mxCell>
        <mxCell id="rCfvvwF2RA5xIQDXdpEa-145" style="rounded=0;orthogonalLoop=1;jettySize=auto;html=1;endArrow=none;startFill=0;" edge="1" parent="1" source="rCfvvwF2RA5xIQDXdpEa-141" target="rCfvvwF2RA5xIQDXdpEa-91">
          <mxGeometry relative="1" as="geometry" />
        </mxCell>
        <mxCell id="rCfvvwF2RA5xIQDXdpEa-141" value="ID" style="ellipse;whiteSpace=wrap;html=1;align=center;fontStyle=4;" vertex="1" parent="1">
          <mxGeometry x="1426.46" y="1050" width="100" height="40" as="geometry" />
        </mxCell>
        <mxCell id="rCfvvwF2RA5xIQDXdpEa-144" value="name" style="ellipse;whiteSpace=wrap;html=1;align=center;" vertex="1" parent="1">
          <mxGeometry x="1446.46" y="1120" width="100" height="40" as="geometry" />
        </mxCell>
        <mxCell id="rCfvvwF2RA5xIQDXdpEa-146" style="rounded=0;orthogonalLoop=1;jettySize=auto;html=1;entryX=0.98;entryY=0.823;entryDx=0;entryDy=0;entryPerimeter=0;endArrow=none;startFill=0;" edge="1" parent="1" source="rCfvvwF2RA5xIQDXdpEa-144" target="rCfvvwF2RA5xIQDXdpEa-91">
          <mxGeometry relative="1" as="geometry" />
        </mxCell>
        <mxCell id="rCfvvwF2RA5xIQDXdpEa-151" style="rounded=0;orthogonalLoop=1;jettySize=auto;html=1;entryX=1;entryY=0.5;entryDx=0;entryDy=0;endArrow=none;startFill=0;" edge="1" parent="1" source="rCfvvwF2RA5xIQDXdpEa-147" target="rCfvvwF2RA5xIQDXdpEa-148">
          <mxGeometry relative="1" as="geometry" />
        </mxCell>
        <mxCell id="rCfvvwF2RA5xIQDXdpEa-323" style="edgeStyle=orthogonalEdgeStyle;shape=connector;rounded=0;orthogonalLoop=1;jettySize=auto;html=1;entryX=0.5;entryY=1;entryDx=0;entryDy=0;strokeColor=default;align=center;verticalAlign=middle;fontFamily=Helvetica;fontSize=11;fontColor=default;labelBackgroundColor=default;endArrow=none;endFill=0;startFill=0;startArrow=ERone;" edge="1" parent="1" source="rCfvvwF2RA5xIQDXdpEa-147" target="rCfvvwF2RA5xIQDXdpEa-334">
          <mxGeometry relative="1" as="geometry">
            <mxPoint x="1500" y="-70.00000000000023" as="targetPoint" />
            <Array as="points">
              <mxPoint x="1250" y="390" />
              <mxPoint x="1320" y="390" />
              <mxPoint x="1320" y="-190" />
            </Array>
          </mxGeometry>
        </mxCell>
        <mxCell id="rCfvvwF2RA5xIQDXdpEa-147" value="Postulation" style="whiteSpace=wrap;html=1;align=center;" vertex="1" parent="1">
          <mxGeometry x="1180" y="430" width="100" height="40" as="geometry" />
        </mxCell>
        <mxCell id="rCfvvwF2RA5xIQDXdpEa-150" style="rounded=0;orthogonalLoop=1;jettySize=auto;html=1;entryX=1;entryY=0;entryDx=0;entryDy=0;endArrow=none;startFill=0;exitX=0;exitY=0.5;exitDx=0;exitDy=0;" edge="1" parent="1" source="rCfvvwF2RA5xIQDXdpEa-148" target="rCfvvwF2RA5xIQDXdpEa-72">
          <mxGeometry relative="1" as="geometry" />
        </mxCell>
        <mxCell id="rCfvvwF2RA5xIQDXdpEa-148" value="has" style="shape=rhombus;perimeter=rhombusPerimeter;whiteSpace=wrap;html=1;align=center;" vertex="1" parent="1">
          <mxGeometry x="990" y="420" width="120" height="60" as="geometry" />
        </mxCell>
        <mxCell id="rCfvvwF2RA5xIQDXdpEa-157" style="rounded=0;orthogonalLoop=1;jettySize=auto;html=1;entryX=0;entryY=0.25;entryDx=0;entryDy=0;endArrow=none;startFill=0;" edge="1" parent="1" source="rCfvvwF2RA5xIQDXdpEa-153" target="rCfvvwF2RA5xIQDXdpEa-147">
          <mxGeometry relative="1" as="geometry" />
        </mxCell>
        <mxCell id="rCfvvwF2RA5xIQDXdpEa-153" value="date" style="ellipse;whiteSpace=wrap;html=1;align=center;" vertex="1" parent="1">
          <mxGeometry x="1016.45" y="370" width="80" height="25" as="geometry" />
        </mxCell>
        <mxCell id="rCfvvwF2RA5xIQDXdpEa-154" value="ID" style="ellipse;whiteSpace=wrap;html=1;align=center;fontStyle=4;" vertex="1" parent="1">
          <mxGeometry x="1050" y="320" width="100" height="40" as="geometry" />
        </mxCell>
        <mxCell id="rCfvvwF2RA5xIQDXdpEa-155" style="rounded=0;orthogonalLoop=1;jettySize=auto;html=1;entryX=0;entryY=0;entryDx=0;entryDy=0;endArrow=none;startFill=0;" edge="1" parent="1" source="rCfvvwF2RA5xIQDXdpEa-154" target="rCfvvwF2RA5xIQDXdpEa-147">
          <mxGeometry relative="1" as="geometry">
            <Array as="points">
              <mxPoint x="1170" y="410" />
            </Array>
          </mxGeometry>
        </mxCell>
        <mxCell id="rCfvvwF2RA5xIQDXdpEa-180" style="edgeStyle=orthogonalEdgeStyle;rounded=0;orthogonalLoop=1;jettySize=auto;html=1;entryX=1;entryY=0.5;entryDx=0;entryDy=0;shape=link;" edge="1" parent="1" source="rCfvvwF2RA5xIQDXdpEa-160" target="rCfvvwF2RA5xIQDXdpEa-175">
          <mxGeometry relative="1" as="geometry" />
        </mxCell>
        <mxCell id="rCfvvwF2RA5xIQDXdpEa-160" value="d" style="ellipse;whiteSpace=wrap;html=1;aspect=fixed;" vertex="1" parent="1">
          <mxGeometry x="1730" y="427.5" width="45" height="45" as="geometry" />
        </mxCell>
        <mxCell id="rCfvvwF2RA5xIQDXdpEa-346" style="edgeStyle=orthogonalEdgeStyle;shape=connector;rounded=0;orthogonalLoop=1;jettySize=auto;html=1;entryX=1;entryY=0.5;entryDx=0;entryDy=0;strokeColor=default;align=center;verticalAlign=middle;fontFamily=Helvetica;fontSize=11;fontColor=default;labelBackgroundColor=default;endArrow=none;endFill=0;startFill=0;" edge="1" parent="1" source="rCfvvwF2RA5xIQDXdpEa-163" target="rCfvvwF2RA5xIQDXdpEa-160">
          <mxGeometry relative="1" as="geometry" />
        </mxCell>
        <mxCell id="rCfvvwF2RA5xIQDXdpEa-163" value="Rejected" style="whiteSpace=wrap;html=1;align=center;" vertex="1" parent="1">
          <mxGeometry x="1917.5" y="260" width="100" height="40" as="geometry" />
        </mxCell>
        <mxCell id="rCfvvwF2RA5xIQDXdpEa-350" style="edgeStyle=orthogonalEdgeStyle;shape=connector;rounded=0;orthogonalLoop=1;jettySize=auto;html=1;entryX=1;entryY=0.5;entryDx=0;entryDy=0;strokeColor=default;align=center;verticalAlign=middle;fontFamily=Helvetica;fontSize=11;fontColor=default;labelBackgroundColor=default;endArrow=none;endFill=0;startFill=0;" edge="1" parent="1" source="rCfvvwF2RA5xIQDXdpEa-164" target="rCfvvwF2RA5xIQDXdpEa-160">
          <mxGeometry relative="1" as="geometry" />
        </mxCell>
        <mxCell id="rCfvvwF2RA5xIQDXdpEa-164" value="Pending_documents" style="whiteSpace=wrap;html=1;align=center;" vertex="1" parent="1">
          <mxGeometry x="1917.5" y="430" width="140" height="40" as="geometry" />
        </mxCell>
        <mxCell id="rCfvvwF2RA5xIQDXdpEa-345" style="edgeStyle=orthogonalEdgeStyle;shape=connector;rounded=0;orthogonalLoop=1;jettySize=auto;html=1;entryX=1;entryY=0.5;entryDx=0;entryDy=0;strokeColor=default;align=center;verticalAlign=middle;fontFamily=Helvetica;fontSize=11;fontColor=default;labelBackgroundColor=default;endArrow=none;endFill=0;startFill=0;" edge="1" parent="1" source="rCfvvwF2RA5xIQDXdpEa-165" target="rCfvvwF2RA5xIQDXdpEa-160">
          <mxGeometry relative="1" as="geometry" />
        </mxCell>
        <mxCell id="rCfvvwF2RA5xIQDXdpEa-165" value="In_review" style="whiteSpace=wrap;html=1;align=center;" vertex="1" parent="1">
          <mxGeometry x="1917.5" y="200" width="150" height="40" as="geometry" />
        </mxCell>
        <mxCell id="rCfvvwF2RA5xIQDXdpEa-347" style="edgeStyle=orthogonalEdgeStyle;shape=connector;rounded=0;orthogonalLoop=1;jettySize=auto;html=1;entryX=1;entryY=0.5;entryDx=0;entryDy=0;strokeColor=default;align=center;verticalAlign=middle;fontFamily=Helvetica;fontSize=11;fontColor=default;labelBackgroundColor=default;endArrow=none;endFill=0;startFill=0;" edge="1" parent="1" source="rCfvvwF2RA5xIQDXdpEa-169" target="rCfvvwF2RA5xIQDXdpEa-160">
          <mxGeometry relative="1" as="geometry" />
        </mxCell>
        <mxCell id="rCfvvwF2RA5xIQDXdpEa-169" value="Completed" style="whiteSpace=wrap;html=1;align=center;" vertex="1" parent="1">
          <mxGeometry x="1917.5" y="320" width="100" height="40" as="geometry" />
        </mxCell>
        <mxCell id="rCfvvwF2RA5xIQDXdpEa-352" style="edgeStyle=orthogonalEdgeStyle;shape=connector;rounded=0;orthogonalLoop=1;jettySize=auto;html=1;entryX=1;entryY=0.5;entryDx=0;entryDy=0;strokeColor=default;align=center;verticalAlign=middle;fontFamily=Helvetica;fontSize=11;fontColor=default;labelBackgroundColor=default;endArrow=none;endFill=0;startFill=0;" edge="1" parent="1" source="rCfvvwF2RA5xIQDXdpEa-170" target="rCfvvwF2RA5xIQDXdpEa-160">
          <mxGeometry relative="1" as="geometry" />
        </mxCell>
        <mxCell id="rCfvvwF2RA5xIQDXdpEa-170" value="Pending_manager_sign" style="whiteSpace=wrap;html=1;align=center;" vertex="1" parent="1">
          <mxGeometry x="1917.5" y="490" width="160" height="40" as="geometry" />
        </mxCell>
        <mxCell id="rCfvvwF2RA5xIQDXdpEa-348" style="edgeStyle=orthogonalEdgeStyle;shape=connector;rounded=0;orthogonalLoop=1;jettySize=auto;html=1;entryX=1;entryY=0.5;entryDx=0;entryDy=0;strokeColor=default;align=center;verticalAlign=middle;fontFamily=Helvetica;fontSize=11;fontColor=default;labelBackgroundColor=default;endArrow=none;endFill=0;startFill=0;" edge="1" parent="1" source="rCfvvwF2RA5xIQDXdpEa-171" target="rCfvvwF2RA5xIQDXdpEa-160">
          <mxGeometry relative="1" as="geometry" />
        </mxCell>
        <mxCell id="rCfvvwF2RA5xIQDXdpEa-171" value="Pending_aspirant_sign" style="whiteSpace=wrap;html=1;align=center;" vertex="1" parent="1">
          <mxGeometry x="1917.5" y="370" width="130" height="40" as="geometry" />
        </mxCell>
        <mxCell id="rCfvvwF2RA5xIQDXdpEa-175" value="Postulation_type" style="whiteSpace=wrap;html=1;align=center;" vertex="1" parent="1">
          <mxGeometry x="1540" y="430" width="100" height="40" as="geometry" />
        </mxCell>
        <mxCell id="rCfvvwF2RA5xIQDXdpEa-178" style="edgeStyle=orthogonalEdgeStyle;rounded=0;orthogonalLoop=1;jettySize=auto;html=1;entryX=0;entryY=0.5;entryDx=0;entryDy=0;endArrow=ERone;endFill=0;" edge="1" parent="1" source="rCfvvwF2RA5xIQDXdpEa-176" target="rCfvvwF2RA5xIQDXdpEa-175">
          <mxGeometry relative="1" as="geometry" />
        </mxCell>
        <mxCell id="rCfvvwF2RA5xIQDXdpEa-179" style="edgeStyle=orthogonalEdgeStyle;rounded=0;orthogonalLoop=1;jettySize=auto;html=1;entryX=1;entryY=0.5;entryDx=0;entryDy=0;endArrow=ERone;endFill=0;" edge="1" parent="1" source="rCfvvwF2RA5xIQDXdpEa-176" target="rCfvvwF2RA5xIQDXdpEa-147">
          <mxGeometry relative="1" as="geometry" />
        </mxCell>
        <mxCell id="rCfvvwF2RA5xIQDXdpEa-176" value="has" style="shape=rhombus;perimeter=rhombusPerimeter;whiteSpace=wrap;html=1;align=center;" vertex="1" parent="1">
          <mxGeometry x="1360" y="420" width="120" height="60" as="geometry" />
        </mxCell>
        <mxCell id="rCfvvwF2RA5xIQDXdpEa-184" style="edgeStyle=orthogonalEdgeStyle;rounded=0;orthogonalLoop=1;jettySize=auto;html=1;endArrow=ERoneToMany;endFill=0;" edge="1" parent="1" source="rCfvvwF2RA5xIQDXdpEa-181" target="rCfvvwF2RA5xIQDXdpEa-183">
          <mxGeometry relative="1" as="geometry" />
        </mxCell>
        <mxCell id="rCfvvwF2RA5xIQDXdpEa-181" value="has" style="shape=rhombus;perimeter=rhombusPerimeter;whiteSpace=wrap;html=1;align=center;" vertex="1" parent="1">
          <mxGeometry x="740.0000000000001" y="1185" width="120" height="60" as="geometry" />
        </mxCell>
        <mxCell id="rCfvvwF2RA5xIQDXdpEa-182" style="rounded=0;orthogonalLoop=1;jettySize=auto;html=1;entryX=0.91;entryY=0.958;entryDx=0;entryDy=0;entryPerimeter=0;endArrow=ERone;endFill=0;jumpStyle=sharp;" edge="1" parent="1" source="rCfvvwF2RA5xIQDXdpEa-181" target="rCfvvwF2RA5xIQDXdpEa-72">
          <mxGeometry relative="1" as="geometry" />
        </mxCell>
        <mxCell id="rCfvvwF2RA5xIQDXdpEa-183" value="requirements" style="whiteSpace=wrap;html=1;align=center;" vertex="1" parent="1">
          <mxGeometry x="907.9100000000001" y="1195" width="100" height="40" as="geometry" />
        </mxCell>
        <mxCell id="rCfvvwF2RA5xIQDXdpEa-186" value="definition" style="ellipse;whiteSpace=wrap;html=1;align=center;" vertex="1" parent="1">
          <mxGeometry x="967.9100000000001" y="1320" width="100" height="40" as="geometry" />
        </mxCell>
        <mxCell id="rCfvvwF2RA5xIQDXdpEa-188" value="ID" style="ellipse;whiteSpace=wrap;html=1;align=center;fontStyle=4;" vertex="1" parent="1">
          <mxGeometry x="847.9100000000001" y="1320" width="100" height="40" as="geometry" />
        </mxCell>
        <mxCell id="rCfvvwF2RA5xIQDXdpEa-189" style="rounded=0;orthogonalLoop=1;jettySize=auto;html=1;entryX=0.338;entryY=1.042;entryDx=0;entryDy=0;entryPerimeter=0;endArrow=none;startFill=0;" edge="1" parent="1" source="rCfvvwF2RA5xIQDXdpEa-188" target="rCfvvwF2RA5xIQDXdpEa-183">
          <mxGeometry relative="1" as="geometry" />
        </mxCell>
        <mxCell id="rCfvvwF2RA5xIQDXdpEa-190" style="rounded=0;orthogonalLoop=1;jettySize=auto;html=1;entryX=0.644;entryY=1.062;entryDx=0;entryDy=0;entryPerimeter=0;endArrow=none;startFill=0;" edge="1" parent="1" source="rCfvvwF2RA5xIQDXdpEa-186" target="rCfvvwF2RA5xIQDXdpEa-183">
          <mxGeometry relative="1" as="geometry" />
        </mxCell>
        <mxCell id="rCfvvwF2RA5xIQDXdpEa-201" style="edgeStyle=orthogonalEdgeStyle;rounded=0;orthogonalLoop=1;jettySize=auto;html=1;entryX=0.5;entryY=1;entryDx=0;entryDy=0;endArrow=ERoneToMany;endFill=0;" edge="1" parent="1" source="rCfvvwF2RA5xIQDXdpEa-194" target="rCfvvwF2RA5xIQDXdpEa-195">
          <mxGeometry relative="1" as="geometry" />
        </mxCell>
        <mxCell id="rCfvvwF2RA5xIQDXdpEa-202" style="edgeStyle=orthogonalEdgeStyle;rounded=0;orthogonalLoop=1;jettySize=auto;html=1;entryX=0.5;entryY=0;entryDx=0;entryDy=0;endArrow=ERoneToMany;endFill=0;" edge="1" parent="1" source="rCfvvwF2RA5xIQDXdpEa-194" target="rCfvvwF2RA5xIQDXdpEa-147">
          <mxGeometry relative="1" as="geometry" />
        </mxCell>
        <mxCell id="rCfvvwF2RA5xIQDXdpEa-194" value="has" style="shape=rhombus;perimeter=rhombusPerimeter;whiteSpace=wrap;html=1;align=center;" vertex="1" parent="1">
          <mxGeometry x="1170" y="220" width="120" height="60" as="geometry" />
        </mxCell>
        <mxCell id="rCfvvwF2RA5xIQDXdpEa-195" value="Aspirant" style="whiteSpace=wrap;html=1;align=center;" vertex="1" parent="1">
          <mxGeometry x="1180" y="92.5" width="100" height="40" as="geometry" />
        </mxCell>
        <mxCell id="rCfvvwF2RA5xIQDXdpEa-207" style="rounded=0;orthogonalLoop=1;jettySize=auto;html=1;endArrow=none;startFill=0;entryX=0.25;entryY=0;entryDx=0;entryDy=0;" edge="1" parent="1" source="rCfvvwF2RA5xIQDXdpEa-206" target="rCfvvwF2RA5xIQDXdpEa-147">
          <mxGeometry relative="1" as="geometry">
            <mxPoint x="1200" y="420" as="targetPoint" />
          </mxGeometry>
        </mxCell>
        <mxCell id="rCfvvwF2RA5xIQDXdpEa-206" value="has_priority" style="ellipse;whiteSpace=wrap;html=1;align=center;" vertex="1" parent="1">
          <mxGeometry x="1100" y="270" width="100" height="40" as="geometry" />
        </mxCell>
        <mxCell id="rCfvvwF2RA5xIQDXdpEa-210" style="edgeStyle=orthogonalEdgeStyle;rounded=0;orthogonalLoop=1;jettySize=auto;html=1;entryX=0.5;entryY=1;entryDx=0;entryDy=0;endArrow=ERone;endFill=0;" edge="1" parent="1" source="rCfvvwF2RA5xIQDXdpEa-208" target="rCfvvwF2RA5xIQDXdpEa-147">
          <mxGeometry relative="1" as="geometry" />
        </mxCell>
        <mxCell id="rCfvvwF2RA5xIQDXdpEa-212" style="edgeStyle=orthogonalEdgeStyle;rounded=0;orthogonalLoop=1;jettySize=auto;html=1;entryX=0;entryY=0.5;entryDx=0;entryDy=0;endArrow=ERzeroToOne;endFill=0;" edge="1" parent="1" source="rCfvvwF2RA5xIQDXdpEa-208" target="rCfvvwF2RA5xIQDXdpEa-211">
          <mxGeometry relative="1" as="geometry" />
        </mxCell>
        <mxCell id="rCfvvwF2RA5xIQDXdpEa-208" value="has" style="shape=rhombus;perimeter=rhombusPerimeter;whiteSpace=wrap;html=1;align=center;" vertex="1" parent="1">
          <mxGeometry x="1367.5" y="690" width="120" height="60" as="geometry" />
        </mxCell>
        <mxCell id="rCfvvwF2RA5xIQDXdpEa-211" value="Contract" style="whiteSpace=wrap;html=1;align=center;" vertex="1" parent="1">
          <mxGeometry x="1590" y="700" width="100" height="40" as="geometry" />
        </mxCell>
        <mxCell id="rCfvvwF2RA5xIQDXdpEa-213" value="File" style="ellipse;whiteSpace=wrap;html=1;align=center;" vertex="1" parent="1">
          <mxGeometry x="1490" y="540" width="100" height="40" as="geometry" />
        </mxCell>
        <mxCell id="rCfvvwF2RA5xIQDXdpEa-214" value="Attribute" style="ellipse;whiteSpace=wrap;html=1;align=center;" vertex="1" parent="1">
          <mxGeometry x="1670" y="540" width="100" height="40" as="geometry" />
        </mxCell>
        <mxCell id="rCfvvwF2RA5xIQDXdpEa-233" style="rounded=0;orthogonalLoop=1;jettySize=auto;html=1;endArrow=none;startFill=0;" edge="1" parent="1" source="rCfvvwF2RA5xIQDXdpEa-215" target="rCfvvwF2RA5xIQDXdpEa-211">
          <mxGeometry relative="1" as="geometry" />
        </mxCell>
        <mxCell id="rCfvvwF2RA5xIQDXdpEa-215" value="Salary" style="ellipse;whiteSpace=wrap;html=1;align=center;" vertex="1" parent="1">
          <mxGeometry x="1446.46" y="600" width="100" height="40" as="geometry" />
        </mxCell>
        <mxCell id="rCfvvwF2RA5xIQDXdpEa-236" style="rounded=0;orthogonalLoop=1;jettySize=auto;html=1;endArrow=none;startFill=0;" edge="1" parent="1" source="rCfvvwF2RA5xIQDXdpEa-216" target="rCfvvwF2RA5xIQDXdpEa-211">
          <mxGeometry relative="1" as="geometry" />
        </mxCell>
        <mxCell id="rCfvvwF2RA5xIQDXdpEa-216" value="ID" style="ellipse;whiteSpace=wrap;html=1;align=center;fontStyle=4;" vertex="1" parent="1">
          <mxGeometry x="1570" y="500" width="100" height="40" as="geometry" />
        </mxCell>
        <mxCell id="rCfvvwF2RA5xIQDXdpEa-221" style="edgeStyle=orthogonalEdgeStyle;rounded=0;orthogonalLoop=1;jettySize=auto;html=1;entryX=0;entryY=0.5;entryDx=0;entryDy=0;endArrow=ERone;endFill=0;" edge="1" parent="1" source="rCfvvwF2RA5xIQDXdpEa-217" target="rCfvvwF2RA5xIQDXdpEa-218">
          <mxGeometry relative="1" as="geometry" />
        </mxCell>
        <mxCell id="rCfvvwF2RA5xIQDXdpEa-337" style="edgeStyle=orthogonalEdgeStyle;shape=connector;rounded=0;orthogonalLoop=1;jettySize=auto;html=1;entryX=1;entryY=0.5;entryDx=0;entryDy=0;strokeColor=default;align=center;verticalAlign=middle;fontFamily=Helvetica;fontSize=11;fontColor=default;labelBackgroundColor=default;endArrow=ERone;endFill=0;" edge="1" parent="1" source="rCfvvwF2RA5xIQDXdpEa-217" target="rCfvvwF2RA5xIQDXdpEa-211">
          <mxGeometry relative="1" as="geometry" />
        </mxCell>
        <mxCell id="rCfvvwF2RA5xIQDXdpEa-217" value="has" style="shape=rhombus;perimeter=rhombusPerimeter;whiteSpace=wrap;html=1;align=center;" vertex="1" parent="1">
          <mxGeometry x="1770" y="690" width="120" height="60" as="geometry" />
        </mxCell>
        <mxCell id="rCfvvwF2RA5xIQDXdpEa-218" value="Contract_state" style="whiteSpace=wrap;html=1;align=center;" vertex="1" parent="1">
          <mxGeometry x="2017.5" y="700" width="100" height="40" as="geometry" />
        </mxCell>
        <mxCell id="rCfvvwF2RA5xIQDXdpEa-227" style="edgeStyle=orthogonalEdgeStyle;rounded=0;orthogonalLoop=1;jettySize=auto;html=1;entryX=1;entryY=0.5;entryDx=0;entryDy=0;shape=link;" edge="1" parent="1" source="rCfvvwF2RA5xIQDXdpEa-222" target="rCfvvwF2RA5xIQDXdpEa-218">
          <mxGeometry relative="1" as="geometry" />
        </mxCell>
        <mxCell id="rCfvvwF2RA5xIQDXdpEa-222" value="d" style="ellipse;whiteSpace=wrap;html=1;aspect=fixed;" vertex="1" parent="1">
          <mxGeometry x="2210" y="697.5" width="45" height="45" as="geometry" />
        </mxCell>
        <mxCell id="rCfvvwF2RA5xIQDXdpEa-228" style="edgeStyle=orthogonalEdgeStyle;rounded=0;orthogonalLoop=1;jettySize=auto;html=1;endArrow=none;startFill=0;" edge="1" parent="1" source="rCfvvwF2RA5xIQDXdpEa-223" target="rCfvvwF2RA5xIQDXdpEa-222">
          <mxGeometry relative="1" as="geometry" />
        </mxCell>
        <mxCell id="rCfvvwF2RA5xIQDXdpEa-223" value="Contract_not_signed" style="whiteSpace=wrap;html=1;align=center;" vertex="1" parent="1">
          <mxGeometry x="2340" y="600" width="160" height="40" as="geometry" />
        </mxCell>
        <mxCell id="rCfvvwF2RA5xIQDXdpEa-231" style="edgeStyle=orthogonalEdgeStyle;rounded=0;orthogonalLoop=1;jettySize=auto;html=1;entryX=1;entryY=0.5;entryDx=0;entryDy=0;endArrow=none;startFill=0;" edge="1" parent="1" source="rCfvvwF2RA5xIQDXdpEa-224" target="rCfvvwF2RA5xIQDXdpEa-222">
          <mxGeometry relative="1" as="geometry" />
        </mxCell>
        <mxCell id="rCfvvwF2RA5xIQDXdpEa-224" value="Contract_partially_signed" style="whiteSpace=wrap;html=1;align=center;" vertex="1" parent="1">
          <mxGeometry x="2340" y="700" width="150" height="40" as="geometry" />
        </mxCell>
        <mxCell id="rCfvvwF2RA5xIQDXdpEa-232" style="edgeStyle=orthogonalEdgeStyle;rounded=0;orthogonalLoop=1;jettySize=auto;html=1;entryX=0.5;entryY=1;entryDx=0;entryDy=0;endArrow=none;startFill=0;" edge="1" parent="1" source="rCfvvwF2RA5xIQDXdpEa-225" target="rCfvvwF2RA5xIQDXdpEa-222">
          <mxGeometry relative="1" as="geometry" />
        </mxCell>
        <mxCell id="rCfvvwF2RA5xIQDXdpEa-225" value="Contract_fully_signed" style="whiteSpace=wrap;html=1;align=center;" vertex="1" parent="1">
          <mxGeometry x="2340" y="825" width="170" height="40" as="geometry" />
        </mxCell>
        <mxCell id="rCfvvwF2RA5xIQDXdpEa-234" style="rounded=0;orthogonalLoop=1;jettySize=auto;html=1;endArrow=none;startFill=0;" edge="1" parent="1" source="rCfvvwF2RA5xIQDXdpEa-213">
          <mxGeometry relative="1" as="geometry">
            <mxPoint x="1630" y="700" as="targetPoint" />
          </mxGeometry>
        </mxCell>
        <mxCell id="rCfvvwF2RA5xIQDXdpEa-235" style="rounded=0;orthogonalLoop=1;jettySize=auto;html=1;entryX=0.794;entryY=0.027;entryDx=0;entryDy=0;entryPerimeter=0;endArrow=none;startFill=0;" edge="1" parent="1" source="rCfvvwF2RA5xIQDXdpEa-214" target="rCfvvwF2RA5xIQDXdpEa-211">
          <mxGeometry relative="1" as="geometry" />
        </mxCell>
        <mxCell id="rCfvvwF2RA5xIQDXdpEa-265" value="Agenda" style="whiteSpace=wrap;html=1;align=center;" vertex="1" parent="1">
          <mxGeometry x="2190" y="10" width="100" height="40" as="geometry" />
        </mxCell>
        <mxCell id="rCfvvwF2RA5xIQDXdpEa-273" style="edgeStyle=orthogonalEdgeStyle;rounded=0;orthogonalLoop=1;jettySize=auto;html=1;entryX=0.5;entryY=1;entryDx=0;entryDy=0;endArrow=ERone;endFill=0;" edge="1" parent="1" source="rCfvvwF2RA5xIQDXdpEa-266" target="rCfvvwF2RA5xIQDXdpEa-267">
          <mxGeometry relative="1" as="geometry" />
        </mxCell>
        <mxCell id="rCfvvwF2RA5xIQDXdpEa-274" style="edgeStyle=orthogonalEdgeStyle;rounded=0;orthogonalLoop=1;jettySize=auto;html=1;endArrow=ERone;endFill=0;" edge="1" parent="1" source="rCfvvwF2RA5xIQDXdpEa-266" target="rCfvvwF2RA5xIQDXdpEa-265">
          <mxGeometry relative="1" as="geometry" />
        </mxCell>
        <mxCell id="rCfvvwF2RA5xIQDXdpEa-266" value="has" style="shape=rhombus;perimeter=rhombusPerimeter;whiteSpace=wrap;html=1;align=center;" vertex="1" parent="1">
          <mxGeometry x="2180" y="-140" width="120" height="60" as="geometry" />
        </mxCell>
        <mxCell id="rCfvvwF2RA5xIQDXdpEa-267" value="Human_resources" style="whiteSpace=wrap;html=1;align=center;" vertex="1" parent="1">
          <mxGeometry x="2180" y="-270" width="120" height="50" as="geometry" />
        </mxCell>
        <mxCell id="rCfvvwF2RA5xIQDXdpEa-312" style="edgeStyle=orthogonalEdgeStyle;shape=link;rounded=0;orthogonalLoop=1;jettySize=auto;html=1;entryX=0.5;entryY=1;entryDx=0;entryDy=0;strokeColor=default;align=center;verticalAlign=middle;fontFamily=Helvetica;fontSize=11;fontColor=default;labelBackgroundColor=default;endArrow=ERoneToMany;endFill=0;" edge="1" parent="1" source="rCfvvwF2RA5xIQDXdpEa-269" target="rCfvvwF2RA5xIQDXdpEa-305">
          <mxGeometry relative="1" as="geometry">
            <Array as="points">
              <mxPoint x="2680" y="-70" />
            </Array>
          </mxGeometry>
        </mxCell>
        <mxCell id="rCfvvwF2RA5xIQDXdpEa-269" value="Interview" style="whiteSpace=wrap;html=1;align=center;" vertex="1" parent="1">
          <mxGeometry x="2630" y="10" width="100" height="40" as="geometry" />
        </mxCell>
        <mxCell id="rCfvvwF2RA5xIQDXdpEa-275" style="edgeStyle=orthogonalEdgeStyle;rounded=0;orthogonalLoop=1;jettySize=auto;html=1;entryX=1;entryY=0.5;entryDx=0;entryDy=0;endArrow=ERone;endFill=0;" edge="1" parent="1" source="rCfvvwF2RA5xIQDXdpEa-270" target="rCfvvwF2RA5xIQDXdpEa-265">
          <mxGeometry relative="1" as="geometry" />
        </mxCell>
        <mxCell id="rCfvvwF2RA5xIQDXdpEa-276" style="edgeStyle=orthogonalEdgeStyle;rounded=0;orthogonalLoop=1;jettySize=auto;html=1;entryX=0;entryY=0.5;entryDx=0;entryDy=0;endArrow=ERzeroToMany;endFill=0;" edge="1" parent="1" source="rCfvvwF2RA5xIQDXdpEa-270" target="rCfvvwF2RA5xIQDXdpEa-269">
          <mxGeometry relative="1" as="geometry" />
        </mxCell>
        <mxCell id="rCfvvwF2RA5xIQDXdpEa-270" value="has" style="shape=rhombus;perimeter=rhombusPerimeter;whiteSpace=wrap;html=1;align=center;" vertex="1" parent="1">
          <mxGeometry x="2411.45" width="120" height="60" as="geometry" />
        </mxCell>
        <mxCell id="rCfvvwF2RA5xIQDXdpEa-272" value="Interview_result" style="whiteSpace=wrap;html=1;align=center;" vertex="1" parent="1">
          <mxGeometry x="2930" y="-190" width="100" height="40" as="geometry" />
        </mxCell>
        <mxCell id="rCfvvwF2RA5xIQDXdpEa-282" value="Postulation" style="whiteSpace=wrap;html=1;align=center;" vertex="1" parent="1">
          <mxGeometry x="2630" y="280" width="100" height="40" as="geometry" />
        </mxCell>
        <mxCell id="rCfvvwF2RA5xIQDXdpEa-285" style="edgeStyle=orthogonalEdgeStyle;rounded=0;orthogonalLoop=1;jettySize=auto;html=1;entryX=0.5;entryY=1;entryDx=0;entryDy=0;endArrow=ERone;endFill=0;" edge="1" parent="1" source="rCfvvwF2RA5xIQDXdpEa-284" target="rCfvvwF2RA5xIQDXdpEa-269">
          <mxGeometry relative="1" as="geometry" />
        </mxCell>
        <mxCell id="rCfvvwF2RA5xIQDXdpEa-286" style="edgeStyle=orthogonalEdgeStyle;rounded=0;orthogonalLoop=1;jettySize=auto;html=1;entryX=0.5;entryY=0;entryDx=0;entryDy=0;endArrow=ERzeroToOne;endFill=0;" edge="1" parent="1" source="rCfvvwF2RA5xIQDXdpEa-284" target="rCfvvwF2RA5xIQDXdpEa-282">
          <mxGeometry relative="1" as="geometry" />
        </mxCell>
        <mxCell id="rCfvvwF2RA5xIQDXdpEa-284" value="has" style="shape=rhombus;double=1;perimeter=rhombusPerimeter;whiteSpace=wrap;html=1;align=center;" vertex="1" parent="1">
          <mxGeometry x="2620" y="120" width="120" height="60" as="geometry" />
        </mxCell>
        <mxCell id="rCfvvwF2RA5xIQDXdpEa-288" style="edgeStyle=orthogonalEdgeStyle;shape=connector;rounded=0;orthogonalLoop=1;jettySize=auto;html=1;entryX=0.5;entryY=1;entryDx=0;entryDy=0;strokeColor=default;align=center;verticalAlign=middle;fontFamily=Helvetica;fontSize=11;fontColor=default;labelBackgroundColor=default;endArrow=ERone;endFill=0;" edge="1" parent="1" source="rCfvvwF2RA5xIQDXdpEa-287" target="rCfvvwF2RA5xIQDXdpEa-272">
          <mxGeometry relative="1" as="geometry" />
        </mxCell>
        <mxCell id="rCfvvwF2RA5xIQDXdpEa-289" style="edgeStyle=orthogonalEdgeStyle;shape=connector;rounded=0;orthogonalLoop=1;jettySize=auto;html=1;entryX=1;entryY=0.5;entryDx=0;entryDy=0;strokeColor=default;align=center;verticalAlign=middle;fontFamily=Helvetica;fontSize=11;fontColor=default;labelBackgroundColor=default;endArrow=ERone;endFill=0;" edge="1" parent="1" source="rCfvvwF2RA5xIQDXdpEa-287" target="rCfvvwF2RA5xIQDXdpEa-269">
          <mxGeometry relative="1" as="geometry" />
        </mxCell>
        <mxCell id="rCfvvwF2RA5xIQDXdpEa-287" value="has" style="shape=rhombus;double=1;perimeter=rhombusPerimeter;whiteSpace=wrap;html=1;align=center;fontFamily=Helvetica;fontSize=11;fontColor=default;labelBackgroundColor=default;" vertex="1" parent="1">
          <mxGeometry x="2920" width="120" height="60" as="geometry" />
        </mxCell>
        <mxCell id="rCfvvwF2RA5xIQDXdpEa-296" style="edgeStyle=orthogonalEdgeStyle;shape=connector;rounded=0;orthogonalLoop=1;jettySize=auto;html=1;entryX=0;entryY=0.5;entryDx=0;entryDy=0;strokeColor=default;align=center;verticalAlign=middle;fontFamily=Helvetica;fontSize=11;fontColor=default;labelBackgroundColor=default;endArrow=none;endFill=0;startFill=0;" edge="1" parent="1" source="rCfvvwF2RA5xIQDXdpEa-290" target="rCfvvwF2RA5xIQDXdpEa-265">
          <mxGeometry relative="1" as="geometry" />
        </mxCell>
        <mxCell id="rCfvvwF2RA5xIQDXdpEa-290" value="Attribute" style="ellipse;whiteSpace=wrap;html=1;align=center;fontFamily=Helvetica;fontSize=11;fontColor=default;labelBackgroundColor=default;" vertex="1" parent="1">
          <mxGeometry x="2040" y="-32.5" width="100" height="40" as="geometry" />
        </mxCell>
        <mxCell id="rCfvvwF2RA5xIQDXdpEa-297" style="edgeStyle=orthogonalEdgeStyle;shape=connector;rounded=0;orthogonalLoop=1;jettySize=auto;html=1;strokeColor=default;align=center;verticalAlign=middle;fontFamily=Helvetica;fontSize=11;fontColor=default;labelBackgroundColor=default;endArrow=none;endFill=0;startFill=0;" edge="1" parent="1" source="rCfvvwF2RA5xIQDXdpEa-291">
          <mxGeometry relative="1" as="geometry">
            <mxPoint x="2190" y="30" as="targetPoint" />
          </mxGeometry>
        </mxCell>
        <mxCell id="rCfvvwF2RA5xIQDXdpEa-291" value="Attribute" style="ellipse;whiteSpace=wrap;html=1;align=center;fontFamily=Helvetica;fontSize=11;fontColor=default;labelBackgroundColor=default;" vertex="1" parent="1">
          <mxGeometry x="2040" y="10" width="100" height="40" as="geometry" />
        </mxCell>
        <mxCell id="rCfvvwF2RA5xIQDXdpEa-298" style="edgeStyle=orthogonalEdgeStyle;shape=connector;rounded=0;orthogonalLoop=1;jettySize=auto;html=1;entryX=0;entryY=0.5;entryDx=0;entryDy=0;strokeColor=default;align=center;verticalAlign=middle;fontFamily=Helvetica;fontSize=11;fontColor=default;labelBackgroundColor=default;endArrow=none;endFill=0;startFill=0;" edge="1" parent="1" source="rCfvvwF2RA5xIQDXdpEa-292" target="rCfvvwF2RA5xIQDXdpEa-265">
          <mxGeometry relative="1" as="geometry" />
        </mxCell>
        <mxCell id="rCfvvwF2RA5xIQDXdpEa-292" value="Attribute" style="ellipse;whiteSpace=wrap;html=1;align=center;fontFamily=Helvetica;fontSize=11;fontColor=default;labelBackgroundColor=default;" vertex="1" parent="1">
          <mxGeometry x="2040" y="52.5" width="100" height="40" as="geometry" />
        </mxCell>
        <mxCell id="rCfvvwF2RA5xIQDXdpEa-299" style="edgeStyle=orthogonalEdgeStyle;shape=connector;rounded=0;orthogonalLoop=1;jettySize=auto;html=1;entryX=0;entryY=0.5;entryDx=0;entryDy=0;strokeColor=default;align=center;verticalAlign=middle;fontFamily=Helvetica;fontSize=11;fontColor=default;labelBackgroundColor=default;endArrow=none;endFill=0;startFill=0;" edge="1" parent="1" source="rCfvvwF2RA5xIQDXdpEa-293" target="rCfvvwF2RA5xIQDXdpEa-265">
          <mxGeometry relative="1" as="geometry" />
        </mxCell>
        <mxCell id="rCfvvwF2RA5xIQDXdpEa-293" value="Attribute" style="ellipse;whiteSpace=wrap;html=1;align=center;fontFamily=Helvetica;fontSize=11;fontColor=default;labelBackgroundColor=default;" vertex="1" parent="1">
          <mxGeometry x="2040" y="92.5" width="100" height="40" as="geometry" />
        </mxCell>
        <mxCell id="rCfvvwF2RA5xIQDXdpEa-295" style="edgeStyle=orthogonalEdgeStyle;shape=connector;rounded=0;orthogonalLoop=1;jettySize=auto;html=1;entryX=0;entryY=0.5;entryDx=0;entryDy=0;strokeColor=default;align=center;verticalAlign=middle;fontFamily=Helvetica;fontSize=11;fontColor=default;labelBackgroundColor=default;endArrow=none;endFill=0;startFill=0;" edge="1" parent="1" source="rCfvvwF2RA5xIQDXdpEa-294" target="rCfvvwF2RA5xIQDXdpEa-265">
          <mxGeometry relative="1" as="geometry" />
        </mxCell>
        <mxCell id="rCfvvwF2RA5xIQDXdpEa-294" value="Attribute" style="ellipse;whiteSpace=wrap;html=1;align=center;fontFamily=Helvetica;fontSize=11;fontColor=default;labelBackgroundColor=default;" vertex="1" parent="1">
          <mxGeometry x="2040" y="-72.5" width="100" height="40" as="geometry" />
        </mxCell>
        <mxCell id="rCfvvwF2RA5xIQDXdpEa-305" value="d" style="ellipse;whiteSpace=wrap;html=1;aspect=fixed;" vertex="1" parent="1">
          <mxGeometry x="2656.25" y="-115" width="45" height="45" as="geometry" />
        </mxCell>
        <mxCell id="rCfvvwF2RA5xIQDXdpEa-306" style="rounded=0;orthogonalLoop=1;jettySize=auto;html=1;entryX=0;entryY=0.5;entryDx=0;entryDy=0;endArrow=none;startFill=0;edgeStyle=elbowEdgeStyle;elbow=vertical;" edge="1" parent="1" source="rCfvvwF2RA5xIQDXdpEa-307" target="rCfvvwF2RA5xIQDXdpEa-305">
          <mxGeometry relative="1" as="geometry" />
        </mxCell>
        <mxCell id="rCfvvwF2RA5xIQDXdpEa-307" value="In_person_interview" style="whiteSpace=wrap;html=1;align=center;" vertex="1" parent="1">
          <mxGeometry x="2558.75" y="-230" width="120" height="40" as="geometry" />
        </mxCell>
        <mxCell id="rCfvvwF2RA5xIQDXdpEa-309" value="Virtual_interview" style="whiteSpace=wrap;html=1;align=center;" vertex="1" parent="1">
          <mxGeometry x="2701.25" y="-230" width="100" height="40" as="geometry" />
        </mxCell>
        <mxCell id="rCfvvwF2RA5xIQDXdpEa-310" style="shape=connector;rounded=0;orthogonalLoop=1;jettySize=auto;html=1;entryX=0.5;entryY=1;entryDx=0;entryDy=0;strokeColor=default;align=center;verticalAlign=middle;fontFamily=Helvetica;fontSize=11;fontColor=default;labelBackgroundColor=default;endArrow=none;endFill=0;exitX=1;exitY=0.5;exitDx=0;exitDy=0;startFill=0;edgeStyle=elbowEdgeStyle;" edge="1" parent="1" source="rCfvvwF2RA5xIQDXdpEa-305" target="rCfvvwF2RA5xIQDXdpEa-309">
          <mxGeometry relative="1" as="geometry" />
        </mxCell>
        <mxCell id="rCfvvwF2RA5xIQDXdpEa-316" style="edgeStyle=orthogonalEdgeStyle;shape=connector;rounded=0;orthogonalLoop=1;jettySize=auto;html=1;strokeColor=default;align=center;verticalAlign=middle;fontFamily=Helvetica;fontSize=11;fontColor=default;labelBackgroundColor=default;endArrow=ERone;endFill=0;" edge="1" parent="1" source="rCfvvwF2RA5xIQDXdpEa-313" target="rCfvvwF2RA5xIQDXdpEa-314">
          <mxGeometry relative="1" as="geometry" />
        </mxCell>
        <mxCell id="rCfvvwF2RA5xIQDXdpEa-313" value="has" style="shape=rhombus;perimeter=rhombusPerimeter;whiteSpace=wrap;html=1;align=center;fontFamily=Helvetica;fontSize=11;fontColor=default;labelBackgroundColor=default;" vertex="1" parent="1">
          <mxGeometry x="2880" y="120" width="120" height="60" as="geometry" />
        </mxCell>
        <mxCell id="rCfvvwF2RA5xIQDXdpEa-314" value="Interview_state" style="whiteSpace=wrap;html=1;align=center;fontFamily=Helvetica;fontSize=11;fontColor=default;labelBackgroundColor=default;" vertex="1" parent="1">
          <mxGeometry x="2890" y="300" width="100" height="40" as="geometry" />
        </mxCell>
        <mxCell id="rCfvvwF2RA5xIQDXdpEa-317" style="edgeStyle=orthogonalEdgeStyle;shape=connector;rounded=0;orthogonalLoop=1;jettySize=auto;html=1;entryX=0.814;entryY=1.016;entryDx=0;entryDy=0;entryPerimeter=0;strokeColor=default;align=center;verticalAlign=middle;fontFamily=Helvetica;fontSize=11;fontColor=default;labelBackgroundColor=default;endArrow=ERoneToMany;endFill=0;" edge="1" parent="1" source="rCfvvwF2RA5xIQDXdpEa-313" target="rCfvvwF2RA5xIQDXdpEa-269">
          <mxGeometry relative="1" as="geometry">
            <Array as="points">
              <mxPoint x="2711" y="130" />
            </Array>
          </mxGeometry>
        </mxCell>
        <mxCell id="rCfvvwF2RA5xIQDXdpEa-324" style="edgeStyle=elbowEdgeStyle;shape=connector;rounded=0;orthogonalLoop=1;jettySize=auto;html=1;strokeColor=default;align=center;verticalAlign=middle;fontFamily=Helvetica;fontSize=11;fontColor=default;labelBackgroundColor=default;endArrow=ERone;endFill=0;elbow=vertical;entryX=0.088;entryY=-0.006;entryDx=0;entryDy=0;entryPerimeter=0;exitX=0.5;exitY=0;exitDx=0;exitDy=0;jumpStyle=sharp;" edge="1" parent="1" source="rCfvvwF2RA5xIQDXdpEa-334" target="rCfvvwF2RA5xIQDXdpEa-269">
          <mxGeometry relative="1" as="geometry">
            <mxPoint x="1560" y="-100.00000000000023" as="sourcePoint" />
            <mxPoint x="2650" y="-10" as="targetPoint" />
            <Array as="points">
              <mxPoint x="2120" y="-370" />
            </Array>
          </mxGeometry>
        </mxCell>
        <mxCell id="rCfvvwF2RA5xIQDXdpEa-326" style="edgeStyle=orthogonalEdgeStyle;shape=link;rounded=0;orthogonalLoop=1;jettySize=auto;html=1;entryX=0.5;entryY=1;entryDx=0;entryDy=0;strokeColor=default;align=center;verticalAlign=middle;fontFamily=Helvetica;fontSize=11;fontColor=default;labelBackgroundColor=default;endArrow=ERoneToMany;endFill=0;" edge="1" parent="1" source="rCfvvwF2RA5xIQDXdpEa-325" target="rCfvvwF2RA5xIQDXdpEa-314">
          <mxGeometry relative="1" as="geometry" />
        </mxCell>
        <mxCell id="rCfvvwF2RA5xIQDXdpEa-325" value="d" style="ellipse;whiteSpace=wrap;html=1;aspect=fixed;" vertex="1" parent="1">
          <mxGeometry x="2917.5" y="403" width="45" height="45" as="geometry" />
        </mxCell>
        <mxCell id="rCfvvwF2RA5xIQDXdpEa-327" value="Interview_scheduled&amp;nbsp;" style="whiteSpace=wrap;html=1;align=center;fontFamily=Helvetica;fontSize=11;fontColor=default;labelBackgroundColor=default;" vertex="1" parent="1">
          <mxGeometry x="2780" y="500" width="110" height="40" as="geometry" />
        </mxCell>
        <mxCell id="rCfvvwF2RA5xIQDXdpEa-331" style="shape=connector;rounded=0;orthogonalLoop=1;jettySize=auto;html=1;entryX=1;entryY=0.5;entryDx=0;entryDy=0;strokeColor=default;align=center;verticalAlign=middle;fontFamily=Helvetica;fontSize=11;fontColor=default;labelBackgroundColor=default;endArrow=none;endFill=0;startFill=0;" edge="1" parent="1" source="rCfvvwF2RA5xIQDXdpEa-329" target="rCfvvwF2RA5xIQDXdpEa-325">
          <mxGeometry relative="1" as="geometry" />
        </mxCell>
        <mxCell id="rCfvvwF2RA5xIQDXdpEa-329" value="Interview_completed" style="whiteSpace=wrap;html=1;align=center;fontFamily=Helvetica;fontSize=11;fontColor=default;labelBackgroundColor=default;" vertex="1" parent="1">
          <mxGeometry x="3017.5" y="500" width="100" height="40" as="geometry" />
        </mxCell>
        <mxCell id="rCfvvwF2RA5xIQDXdpEa-330" style="shape=connector;rounded=0;orthogonalLoop=1;jettySize=auto;html=1;entryX=0.027;entryY=0.378;entryDx=0;entryDy=0;entryPerimeter=0;strokeColor=default;align=center;verticalAlign=middle;fontFamily=Helvetica;fontSize=11;fontColor=default;labelBackgroundColor=default;endArrow=none;endFill=0;startFill=0;" edge="1" parent="1" source="rCfvvwF2RA5xIQDXdpEa-327" target="rCfvvwF2RA5xIQDXdpEa-325">
          <mxGeometry relative="1" as="geometry" />
        </mxCell>
        <mxCell id="rCfvvwF2RA5xIQDXdpEa-334" value="has" style="shape=rhombus;double=1;perimeter=rhombusPerimeter;whiteSpace=wrap;html=1;align=center;fontFamily=Helvetica;fontSize=11;fontColor=default;labelBackgroundColor=default;" vertex="1" parent="1">
          <mxGeometry x="1258.96" y="-243" width="120" height="53" as="geometry" />
        </mxCell>
        <mxCell id="rCfvvwF2RA5xIQDXdpEa-338" style="edgeStyle=orthogonalEdgeStyle;shape=connector;rounded=0;orthogonalLoop=1;jettySize=auto;html=1;exitX=0.5;exitY=1;exitDx=0;exitDy=0;strokeColor=default;align=center;verticalAlign=middle;fontFamily=Helvetica;fontSize=11;fontColor=default;labelBackgroundColor=default;endArrow=ERoneToMany;endFill=0;" edge="1" parent="1" source="rCfvvwF2RA5xIQDXdpEa-61" target="rCfvvwF2RA5xIQDXdpEa-61">
          <mxGeometry relative="1" as="geometry" />
        </mxCell>
        <mxCell id="rCfvvwF2RA5xIQDXdpEa-356" style="edgeStyle=orthogonalEdgeStyle;shape=connector;rounded=0;orthogonalLoop=1;jettySize=auto;html=1;entryX=0.5;entryY=1;entryDx=0;entryDy=0;strokeColor=default;align=center;verticalAlign=middle;fontFamily=Helvetica;fontSize=11;fontColor=default;labelBackgroundColor=default;endArrow=ERoneToMany;endFill=0;" edge="1" parent="1" source="rCfvvwF2RA5xIQDXdpEa-354" target="rCfvvwF2RA5xIQDXdpEa-211">
          <mxGeometry relative="1" as="geometry" />
        </mxCell>
        <mxCell id="rCfvvwF2RA5xIQDXdpEa-354" value="Signs" style="shape=rhombus;perimeter=rhombusPerimeter;whiteSpace=wrap;html=1;align=center;fontFamily=Helvetica;fontSize=11;fontColor=default;labelBackgroundColor=default;" vertex="1" parent="1">
          <mxGeometry x="980" y="825" width="120" height="60" as="geometry" />
        </mxCell>
        <mxCell id="rCfvvwF2RA5xIQDXdpEa-357" value="hiring_form_document" style="whiteSpace=wrap;html=1;align=center;fontFamily=Helvetica;fontSize=11;fontColor=default;labelBackgroundColor=default;" vertex="1" parent="1">
          <mxGeometry x="1590" y="30" width="140" height="40" as="geometry" />
        </mxCell>
        <mxCell id="rCfvvwF2RA5xIQDXdpEa-359" value="has" style="shape=rhombus;perimeter=rhombusPerimeter;whiteSpace=wrap;html=1;align=center;fontFamily=Helvetica;fontSize=11;fontColor=default;labelBackgroundColor=default;" vertex="1" parent="1">
          <mxGeometry x="1470" y="230" width="120" height="60" as="geometry" />
        </mxCell>
      </root>
    </mxGraphModel>
  </diagram>
</mxfile>
